<svg xmlns="http://www.w3.org/2000/svg" version="1.1" xmlns:xlink="http://www.w3.org/1999/xlink" xmlns:svgjs="http://svgjs.dev/svgjs" width="800px" height="800px"><svg width="800px" height="800px" viewBox="0 0 24 24" fill="none" version="1.1" id="SvgjsSvg1022" sodipodi:docname="terminal-svgrepo-com.svg" inkscape:version="1.4 (86a8ad7, 2024-10-11)" xmlns:inkscape="http://www.inkscape.org/namespaces/inkscape" xmlns:sodipodi="http://sodipodi.sourceforge.net/DTD/sodipodi-0.dtd" xmlns="http://www.w3.org/2000/svg" xmlns:svg="http://www.w3.org/2000/svg">
  <defs id="SvgjsDefs1021"></defs>
  <sodipodi:namedview id="SvgjsSodipodi:namedview1020" pagecolor="#ffffff" bordercolor="#666666" borderopacity="1.0" inkscape:showpageshadow="2" inkscape:pageopacity="0.0" inkscape:pagecheckerboard="0" inkscape:deskcolor="#d1d1d1" inkscape:zoom="1.055" inkscape:cx="401.89573" inkscape:cy="380.09479" inkscape:window-width="1920" inkscape:window-height="1017" inkscape:window-x="1912" inkscape:window-y="-8" inkscape:window-maximized="1" inkscape:current-layer="svg1"></sodipodi:namedview>
  <rect width="24" height="24" fill="white" id="SvgjsRect1019"></rect>
  <path id="SvgjsPath1018" style="fill:#302424;fill-opacity:1" d="M 6.9341602 3 C 6.0476702 2.99995 5.283867 2.9999084 4.672207 3.0821484 C 4.016687 3.1702784 3.3883709 3.3690119 2.8787109 3.8786719 C 2.3690409 4.3883419 2.1702589 5.0167166 2.0821289 5.6722266 C 1.9998889 6.2838966 1.9999305 7.0476797 1.9999805 7.9341797 L 1.9999805 16.06582 C 1.9999305 16.95232 1.9998889 17.716073 2.0821289 18.327773 C 2.1702589 18.983273 2.3690409 19.611728 2.8787109 20.121328 C 3.3883709 20.631028 4.016687 20.82971 4.672207 20.91791 C 5.283867 21.00011 6.0477187 21.0001 6.9342187 21 L 17.065781 21 C 17.952281 21.0001 18.716093 21.00011 19.327793 20.91791 C 19.983293 20.82971 20.611689 20.631028 21.121289 20.121328 C 21.630989 19.611728 21.829671 18.983273 21.917871 18.327773 C 22.000071 17.716073 22.00012 16.95232 22.00002 16.06582 L 22.00002 8.0000391 L 22.00002 7.9341797 C 22.00012 7.0476897 22.000071 6.2838866 21.917871 5.6722266 C 21.829671 5.0167166 21.630989 4.3883319 21.121289 3.8786719 C 20.611689 3.3690019 19.983293 3.1702784 19.327793 3.0821484 C 18.716093 2.9999084 17.952281 2.99995 17.065781 3 L 16.99998 3 L 6.9341602 3 z M 6.5881055 7.5836719 L 8.8642383 7.5836719 C 9.0952473 7.5836719 9.2854649 7.5882063 9.4349414 7.5972656 C 9.5844179 7.606325 9.7203378 7.6176027 9.8426367 7.6311914 C 10.195945 7.6810167 10.513014 7.767115 10.793848 7.8894141 C 11.079212 8.011713 11.319251 8.1725145 11.514023 8.3718164 C 11.713325 8.5665887 11.865058 8.7998262 11.969238 9.0716016 C 12.073419 9.3388474 12.125508 9.6469052 12.125508 9.9956836 C 12.125508 10.290107 12.087023 10.559621 12.01002 10.804219 C 11.937546 11.044287 11.828833 11.259386 11.683887 11.449629 C 11.53894 11.639872 11.360001 11.805208 11.147109 11.945625 C 10.934219 12.086042 10.691912 12.19929 10.420137 12.285352 C 10.551495 12.348765 10.673811 12.425794 10.787051 12.516387 C 10.90482 12.606979 11.013532 12.717958 11.113184 12.849316 C 11.217364 12.976145 11.31474 13.123343 11.405332 13.290938 C 11.495924 13.454003 11.584231 13.639686 11.670293 13.848047 L 12.410859 15.580664 C 12.478803 15.752788 12.524149 15.879581 12.546797 15.961113 C 12.569444 16.038117 12.580723 16.099275 12.580723 16.14457 C 12.580723 16.194397 12.571714 16.237416 12.553594 16.273652 C 12.535474 16.305359 12.492395 16.332568 12.424453 16.355215 C 12.356509 16.377862 12.256866 16.393674 12.125508 16.402734 C 11.99415 16.411794 11.815269 16.416328 11.588789 16.416328 C 11.398546 16.416328 11.246755 16.411794 11.133516 16.402734 C 11.020276 16.393674 10.929702 16.377862 10.861758 16.355215 C 10.798344 16.328035 10.753057 16.296292 10.725879 16.260059 C 10.698699 16.219292 10.676023 16.171737 10.65791 16.117383 L 9.8697656 14.153848 C 9.7746442 13.931898 9.6818027 13.73482 9.5912109 13.562695 C 9.5006191 13.390571 9.3987085 13.247908 9.2854687 13.134668 C 9.1767586 13.016899 9.0499078 12.928592 8.9049609 12.869707 C 8.7600141 12.810822 8.5924694 12.781348 8.4022266 12.781348 L 7.8450586 12.781348 L 7.8450586 16.130977 C 7.8450586 16.17627 7.8291878 16.217022 7.7974805 16.253262 C 7.7703031 16.289502 7.7227488 16.318974 7.6548047 16.341621 C 7.5868609 16.364268 7.4962867 16.382403 7.3830469 16.395996 C 7.2698071 16.409583 7.1248767 16.416328 6.9482227 16.416328 C 6.7760983 16.416328 6.6311092 16.409583 6.5133398 16.395996 C 6.4001001 16.382409 6.3095259 16.364274 6.241582 16.341621 C 6.1736382 16.318974 6.1260838 16.289502 6.0989062 16.253262 C 6.0717289 16.217022 6.058125 16.176269 6.058125 16.130977 L 6.058125 8.1475781 C 6.058125 7.9482762 6.1079467 7.805613 6.2075977 7.7195508 C 6.3117782 7.628959 6.438629 7.5836719 6.5881055 7.5836719 z M 7.8450586 8.9493164 L 7.8450586 11.442891 L 8.7554883 11.442891 C 9.0091453 11.442891 9.2311049 11.413418 9.4213477 11.354531 C 9.6115905 11.291118 9.7701246 11.205078 9.8969531 11.096367 C 10.023781 10.983127 10.11889 10.849475 10.182305 10.695469 C 10.245718 10.541463 10.277461 10.369325 10.277461 10.179082 C 10.277461 9.8891881 10.211768 9.6446144 10.08041 9.4453125 C 9.9490521 9.2460106 9.7338943 9.1056147 9.4349414 9.024082 C 9.3443496 9.0014341 9.2401717 8.9832958 9.1224023 8.969707 C 9.0091626 8.9561182 8.8506284 8.9493164 8.6467969 8.9493164 L 7.8450586 8.9493164 z M 14.86002 14.35998 L 17.86002 14.35998 C 18.41232 14.35998 18.85998 14.8077 18.85998 15.36 C 18.85998 15.9123 18.41232 16.36002 17.86002 16.36002 L 14.86002 16.36002 C 14.30772 16.36002 13.86 15.9123 13.86 15.36 C 13.86 14.8077 14.30772 14.35998 14.86002 14.35998 z "></path>
  <text xml:space="preserve" style="font-size:0.767025px;line-height:1.25;font-family:'Roboto Serif';-inkscape-font-specification:'Roboto Serif, Normal';stroke-width:0.03" x="12.625592" y="6.4265404" id="SvgjsText1017" svgjs:data="{&quot;leading&quot;:&quot;1.3&quot;}"><tspan sodipodi:role="line" id="SvgjsTspan1016" style="stroke-width:0.03"></tspan></text>
</svg><style>@media (prefers-color-scheme: light) { :root { filter: none; } }
@media (prefers-color-scheme: dark) { :root { filter: none; } }
</style></svg>